<svg width="24" height="24" viewBox="0 0 24 24" xmlns="http://www.w3.org/2000/svg">
  <path fill-rule="evenodd" clip-rule="evenodd" fill="currentColor" d="M7.97037 20.1738C8.10611 19.9927 8.22384 19.7247 8.32355 19.3699C8.48311 18.7636 8.5629 18.1401 8.5629 17.4995C8.5629 16.7331 8.47741 15.938 8.30645 15.1144C8.26008 14.891 8.20994 14.6681 8.15603 14.4455C8.06151 14.5218 7.96882 14.5974 7.87798 14.6724C7.60772 14.895 7.24933 15.2013 6.8028 15.5912C6.35627 15.981 5.90452 16.4164 5.44753 16.8972C5.24842 17.1036 5.06067 17.3071 4.88426 17.5077C4.89526 17.725 4.92934 17.9192 4.9865 18.0901C5.30599 19.0453 5.82425 19.673 6.54127 19.9729C6.9815 20.1492 7.45785 20.2162 7.97037 20.1738ZM6.42832 20.5857C5.59913 20.1234 4.99435 19.3236 4.61398 18.1863C4.58464 18.0986 4.557 18.0111 4.53106 17.9239C4.42268 18.0565 4.31948 18.1879 4.22145 18.3179C3.87019 18.8 3.66124 19.2196 3.59458 19.5766C3.59458 19.5766 3.50469 20.1992 3.28784 20.1491C3.07099 20.0989 3.21182 19.5153 3.21277 19.5153C3.26897 19.2491 3.33886 19.0067 3.42246 18.788C3.61635 18.2165 3.9166 17.6306 4.32322 17.0303C4.27655 16.75 4.24807 16.4723 4.23778 16.1972C4.01776 15.9427 3.82082 15.6708 3.64696 15.3814C3.49043 15.0863 3.35698 14.7737 3.24661 14.4437C3.0375 13.8185 2.96137 13.2451 3.01824 12.7236C3.0751 12.2022 3.24457 11.6429 3.52666 11.0457C4.02213 9.96541 4.74017 9.035 5.68078 8.25451C5.44917 7.84588 5.20172 7.42136 4.93843 6.98093C4.65349 6.52336 4.40844 6.05434 4.20328 5.57388C3.98672 5.08198 3.86705 4.59581 3.84425 4.11535C3.82146 3.76072 3.92404 3.48618 4.15199 3.29171C4.36855 3.09724 4.63069 3 4.93843 3C5.22337 3 5.49692 3.0858 5.75906 3.25739C6.28336 3.61201 6.79625 4.08675 7.29775 4.6816C7.76102 5.2311 8.20483 5.83918 8.6292 6.50582C8.79926 6.43838 8.97068 6.37563 9.14345 6.31755C9.85376 6.07879 10.5845 5.98771 11.3358 6.04431C12.1044 6.09508 12.804 6.31397 13.4345 6.70097C14.0765 7.06479 14.5773 7.61132 14.9368 8.34058C15.0295 8.50261 15.105 8.67047 15.163 8.84415L15.2793 9.19189C16.1184 8.89691 16.9302 8.67776 17.7147 8.53444C18.759 8.34365 19.6767 8.33334 20.4677 8.5035C21.5132 8.71456 22.2004 9.10472 22.5292 9.67398C22.7302 10.0219 22.7333 10.3908 22.5387 10.7807C22.369 11.1773 21.9551 11.5691 21.2971 11.9563C20.6704 12.3251 19.7983 12.6687 18.6809 12.9873C17.8382 13.2381 16.8239 13.4512 15.638 13.6267C15.4601 14.6159 15.1214 15.5651 14.6218 16.4742C14.0343 17.5412 13.2587 18.4781 12.2952 19.285C11.5278 19.9293 10.6937 20.4029 9.79282 20.7057C9.04946 20.9556 8.35721 21.0464 7.71608 20.9779C7.62945 20.9926 7.5413 21 7.45162 21C7.25786 21 7.0698 20.96 6.88744 20.8799C6.72654 20.8134 6.5735 20.7153 6.42832 20.5857ZM15.7194 13.0806C17.4498 12.6534 19.0481 12.0085 20.514 11.1458C21.5637 10.5282 21.9607 9.99796 21.7049 9.5552C21.5222 9.23894 21.0021 9.04711 20.1445 8.97971C18.9449 8.90168 17.6858 9.10229 16.3673 9.58156C16.0768 9.68634 15.7888 9.79709 15.5031 9.9138C15.7777 10.942 15.8517 11.9812 15.7251 13.0314C15.7233 13.0478 15.7214 13.0642 15.7194 13.0806ZM15.2137 10.0344C15.3641 10.8164 15.3609 11.6129 15.204 12.424C15.1481 12.7009 15.0796 12.9743 14.9985 13.2443C14.3741 13.3742 13.7331 13.4768 13.0756 13.5522C13.0875 13.2856 13.0935 13.0056 13.0935 12.7121C13.0935 12.19 13.0752 11.6532 13.0387 11.1017C13.7473 10.7054 14.4723 10.3496 15.2137 10.0344ZM15.0209 9.28481C15.0138 9.26256 15.0065 9.24031 14.999 9.21808C14.9526 9.07913 14.9003 8.95178 14.8423 8.83603C14.8017 8.71445 14.7524 8.59579 14.6944 8.48003C14.4043 7.84334 13.947 7.36914 13.3224 7.05743C12.973 6.87473 12.6045 6.74001 12.217 6.65326C12.2927 6.79295 12.3569 6.94221 12.4096 7.10105C12.5464 7.53575 12.6661 8.06768 12.7686 8.69685C12.8462 9.17249 12.9107 9.66773 12.9622 10.1826C13.4518 9.94135 13.9433 9.71713 14.4367 9.50993C14.6329 9.43092 14.8276 9.35588 15.0209 9.28481ZM11.1101 6.52814C10.4787 6.50704 9.87546 6.59315 9.30029 6.78649C9.16367 6.83241 9.02851 6.8814 8.89483 6.93345C9.02203 7.14233 9.14695 7.35305 9.26959 7.56561C9.6622 7.34616 10.0742 7.16394 10.5055 7.01897C10.7827 6.92579 10.9358 6.92262 10.9648 7.00947C10.9997 7.11367 10.8612 7.21819 10.5493 7.32301C10.1729 7.44955 9.80585 7.63498 9.44818 7.87932C9.6435 8.22708 9.83281 8.57967 10.0161 8.93708C10.4036 9.70353 10.757 10.4471 11.0761 11.1678L11.0876 11.1947C11.4549 10.9789 11.8233 10.7728 12.1928 10.5765C12.0968 9.93639 11.9867 9.36705 11.8625 8.86845C11.7144 8.31935 11.589 7.87321 11.4864 7.53003C11.4349 7.36972 11.3531 7.17668 11.2789 7.00164C11.189 6.78947 11.1103 6.60374 11.1103 6.53479C11.1102 6.53255 11.1101 6.53034 11.1101 6.52814ZM9.1086 8.13125C9.42098 8.64886 9.72348 9.1863 10.0161 9.74357C10.2983 10.281 10.5575 10.823 10.7938 11.3697C9.8958 11.9119 9.03593 12.4991 8.2142 13.1313C8.00626 12.4825 7.78625 11.8337 7.5542 11.1849C7.44061 10.8744 7.32837 10.5679 7.21747 10.2654C7.60312 9.69439 8.02117 9.17824 8.47162 8.71696C8.68041 8.49953 8.89274 8.3043 9.1086 8.13125ZM8.89818 7.78799C8.62131 7.96516 8.35469 8.16208 8.09833 8.37874C7.68774 8.73089 7.30375 9.11355 6.94635 9.52671C6.82824 9.20527 6.71172 8.88861 6.5968 8.57674C6.56398 8.48969 6.53146 8.40336 6.49924 8.31776C6.59368 8.24148 6.69028 8.167 6.78906 8.09431C7.31789 7.70514 7.87656 7.37823 8.46507 7.11358C8.5146 7.18853 8.5643 7.26443 8.61419 7.34128C8.70972 7.48844 8.80438 7.63735 8.89818 7.78799ZM8.18337 6.69474C7.5348 6.98745 6.90647 7.3502 6.29836 7.78299C6.09406 7.23803 5.90289 6.72473 5.72487 6.24309C5.46272 5.5224 5.25757 4.91611 5.1094 4.42421C5.02961 4.17255 4.98972 3.96663 4.98972 3.80648C4.98972 3.60057 5.05811 3.49762 5.19488 3.49762C5.36584 3.49762 5.62799 3.66349 5.98132 3.99523C6.33465 4.32698 6.73927 4.77884 7.19517 5.35081C7.5161 5.75344 7.8455 6.20141 8.18337 6.69474ZM5.96677 8.78907C5.54939 9.19405 5.18329 9.64136 4.86849 10.131C4.35558 10.9023 4.03065 11.7747 3.89368 12.7482C3.85373 13.0321 3.85144 13.371 3.8868 13.7648C3.93949 14.1528 4.0094 14.4771 4.09653 14.7376C4.143 14.8766 4.20099 14.9923 4.27049 15.0849C4.38483 14.3896 4.60597 13.639 4.93392 12.8332C5.26186 12.0274 5.69094 11.236 6.22117 10.4588C6.3317 10.3007 6.44542 10.1463 6.56232 9.99558C6.36182 9.56957 6.16331 9.1674 5.96677 8.78907ZM6.90275 10.7553C6.84558 10.8489 6.78918 10.9438 6.73357 11.0401C6.22087 11.9273 5.80641 12.8201 5.49018 13.7185C5.16815 14.5996 4.97595 15.3791 4.91359 16.057L4.89833 16.2584C4.92707 16.223 4.95616 16.1875 4.98561 16.152C5.74946 15.2576 6.65298 14.3869 7.69616 13.54C7.75504 13.4924 7.81413 13.445 7.87342 13.3979C7.80019 13.1516 7.72227 12.9058 7.63968 12.6606C7.40898 12.003 7.16334 11.3679 6.90275 10.7553ZM14.8355 13.7364C14.6154 14.3428 14.3298 14.9314 13.9787 15.5022C13.3968 16.4706 12.728 17.3233 11.9723 18.0604C11.5628 18.4492 11.1069 18.815 10.6048 19.1576C10.122 19.4931 9.60474 19.7539 9.05291 19.9401C9.11754 19.8155 9.17076 19.6826 9.21257 19.5415C9.25816 19.3813 9.29235 19.2097 9.31515 19.0267C9.32654 18.8551 9.33224 18.6721 9.33224 18.4776C9.33224 17.8599 9.25246 17.1563 9.09289 16.367C8.94066 15.6642 8.75229 14.9251 8.52778 14.1498C8.98489 13.7909 9.48115 13.4186 10.0166 13.0326C10.3861 12.7672 10.7652 12.507 11.1537 12.2521L11.1787 12.3174C11.3535 12.7773 11.5028 13.2291 11.6266 13.673C11.5107 13.6791 11.3943 13.6845 11.2774 13.6891C11.0098 13.6982 10.8133 13.7397 10.688 13.8134C10.6253 13.8503 10.6031 13.8846 10.6214 13.9162C10.6579 13.9794 10.7976 14.0032 11.0404 13.9874C11.2648 13.9758 11.4851 13.9639 11.7013 13.9517C11.7783 14.2515 11.8434 14.5475 11.8967 14.8398C11.9081 14.9199 11.9195 15.0458 11.9309 15.2174C11.9423 15.3889 11.9708 15.5434 12.0164 15.6806C12.0506 15.8179 12.1247 15.8866 12.2387 15.8866C12.4894 15.8751 12.6661 15.7493 12.7686 15.5091C12.8598 15.2688 12.9225 15.0458 12.9567 14.8398C13.0014 14.5427 13.0351 14.2209 13.0579 13.8743C13.5581 13.8526 14.0512 13.8187 14.5375 13.7729C14.6379 13.7609 14.7372 13.7488 14.8355 13.7364ZM11.8625 13.1068C11.7395 12.7819 11.6018 12.4331 11.4495 12.0603C11.7307 11.88 12.0168 11.7023 12.3078 11.5273C12.3529 12.0383 12.3754 12.5819 12.3754 13.1582C12.3754 13.3106 12.3731 13.4653 12.3684 13.6223C12.264 13.6311 12.1592 13.6391 12.054 13.6466C11.9961 13.4812 11.9323 13.3012 11.8625 13.1068ZM12.1509 13.9258L12.3572 13.9134C12.349 14.0878 12.3379 14.2651 12.3241 14.4452C12.2771 14.2985 12.2194 14.1253 12.1509 13.9258Z"/>
</svg>